<svg width="16" height="16" viewBox="0 0 16 16" fill="none" xmlns="http://www.w3.org/2000/svg">
<path d="M11.2131 2.74433C11.4755 2.482 11.6964 2.37154 11.8759 2.41296C12.0554 2.42677 12.2832 2.57174 12.5593 2.84788C12.8354 3.12401 12.9873 3.35873 13.0149 3.55202C13.0425 3.71771 12.9252 3.93171 12.6629 4.19404L9.18353 7.67336L12.87 11.3597C13.1323 11.6221 13.2496 11.8499 13.222 12.0432C13.1944 12.2365 13.0425 12.4712 12.7664 12.7473C12.4765 13.0373 12.2348 13.1961 12.0415 13.2237C11.8482 13.2513 11.6204 13.1339 11.3581 12.8716L7.67168 9.18521L4.21307 12.6438C3.95074 12.9061 3.72983 13.0304 3.55034 13.0166C3.35705 12.989 3.12233 12.8371 2.8462 12.5609C2.57006 12.2848 2.42509 12.057 2.41128 11.8775C2.38367 11.6842 2.50102 11.4564 2.76335 11.1941L6.22197 7.73549L2.74264 4.25617C2.48031 3.99384 2.36296 3.76603 2.39057 3.57274C2.41818 3.37944 2.57696 3.13782 2.86691 2.84788C3.14304 2.57174 3.37776 2.41986 3.57105 2.39225C3.76435 2.36464 3.99216 2.48199 4.25449 2.74432L7.73381 6.22365L11.2131 2.74433Z" fill="white"/>
</svg>
