<svg width="162" height="171" viewBox="0 0 162 171" fill="none" xmlns="http://www.w3.org/2000/svg">
<path d="M77.4743 136.337C77.8913 136.337 78.3055 136.34 78.7167 136.346C79.1279 136.353 79.5361 136.362 79.9409 136.375C80.0424 136.378 80.1437 136.381 80.2447 136.385C80.3458 136.388 80.4467 136.392 80.5474 136.396C85.8269 136.599 90.4971 137.32 93.8474 138.363C97.1977 139.407 99.2281 140.773 99.2281 142.269C99.2281 145.545 89.4886 148.201 77.4743 148.201C65.4599 148.201 55.7204 145.545 55.7204 142.269C55.7204 139.819 61.1665 137.716 68.9375 136.811C71.5585 136.506 74.444 136.337 77.4743 136.337Z" fill="black"/>
<path d="M78.9999 51.1674C78.9999 50.9408 79.0373 50.7647 78.9939 50.6145C78.6899 49.5599 78.4208 48.4892 78.0388 47.4659C77.6872 46.524 77.2368 45.6187 76.7788 44.7266C76.1632 43.5279 75.5373 42.3309 74.8377 41.1863C74.5105 40.6511 73.9907 40.2498 73.5763 39.7704C73.2887 39.4378 73.0349 39.073 72.7605 38.7275C72.5186 38.4229 72.2672 38.1266 72.0234 37.8236C71.867 37.6293 71.7214 37.425 71.5627 37.2329C71.1419 36.7235 70.7567 36.1712 70.284 35.7219C69.4945 34.9714 68.9542 34.0279 68.329 33.1474C68.081 32.7981 67.7677 32.5006 67.5171 32.153C67.2607 31.7971 67.0388 31.4125 66.8179 31.0301C66.7871 30.9768 66.8482 30.8644 66.8669 30.7794C66.9621 30.8062 67.0889 30.8013 67.147 30.8655C67.3474 31.0873 67.5106 31.3467 67.7119 31.5675C68.3598 32.2776 69.0233 32.9719 69.6705 33.6826C69.9377 33.9759 70.1858 34.2896 70.4309 34.6043C70.7513 35.0159 71.0559 35.4412 71.3744 35.8545C72.0817 36.7725 72.7954 37.6851 73.5026 38.6032C74.0052 39.2556 74.4868 39.9267 75.004 40.5659C75.7763 41.5205 76.6096 42.4228 77.344 43.4079C77.8366 44.0689 78.3899 44.6832 78.6404 45.5523C78.9144 46.5031 79.404 47.3826 79.7587 48.3106C79.9564 48.828 80.0442 49.3913 80.2286 49.9155C80.5354 50.7872 80.8777 51.645 81.2134 52.505C81.2385 52.569 81.3314 52.6036 81.4943 52.7317C81.5125 52.2133 81.5455 51.7875 81.5381 51.3626C81.5269 50.7279 81.532 50.0872 81.4495 49.4608C81.3081 48.3866 81.1208 47.3181 80.9209 46.2539C80.7946 45.582 80.6441 44.9104 80.4419 44.2605C80.2629 43.685 79.9493 43.1553 79.7808 42.5775C79.4923 41.5882 78.9922 40.7288 78.4623 39.877C78.1847 39.4309 77.9635 38.9436 77.6677 38.5125C77.0158 37.5624 76.4171 36.5694 75.5449 35.8013C74.7641 35.1138 74.0352 34.361 73.2796 33.6415C73.0907 33.4615 72.8949 33.2871 72.6886 33.1303C71.4674 32.2021 70.2484 31.2706 69.0149 30.361C68.6237 30.0725 68.1858 29.8554 67.7771 29.5921C66.7758 28.9468 65.7776 28.2961 64.7832 27.6388C64.708 27.5892 64.6732 27.4713 64.6197 27.3851C64.7249 27.3414 64.8396 27.2456 64.9334 27.2647C65.1389 27.3065 65.3414 27.3895 65.5317 27.4855C66.4343 27.941 67.3449 28.3819 68.2282 28.8765C68.8815 29.2424 69.4707 29.7414 70.1355 30.0776C71.4677 30.7515 72.5927 31.7349 73.7767 32.6344C74.0898 32.8724 74.4916 32.9882 74.7844 33.2464C75.3491 33.7444 75.8842 34.2846 76.397 34.8426C77.128 35.638 77.8865 36.4176 78.5253 37.2919C79.2091 38.2278 79.8606 39.2171 80.355 40.2725C80.8647 41.3606 81.2177 42.5409 81.5482 43.7096C81.8946 44.9348 82.1066 46.2017 82.4272 47.4359C82.658 48.3244 82.8589 49.2054 82.8443 50.1356C82.8414 50.3222 82.9995 50.5116 83.1741 50.6977C83.2522 50.3493 83.3752 50.0043 83.3995 49.6517C83.4592 48.7819 83.4762 47.9087 83.5054 47.0367C83.5252 46.4482 83.5219 45.8583 83.5618 45.2714C83.5719 45.1216 83.7065 44.9812 83.784 44.8365C83.9516 44.9576 84.1651 45.0446 84.2749 45.2088C84.4009 45.3972 84.455 45.6492 84.5058 45.8819C84.8246 47.3422 85.8247 48.2452 86.8838 49.0802C87.4565 49.5317 88.7108 49.3294 88.7928 48.355C88.8114 48.1349 88.9068 47.917 88.9914 47.7091C89.4148 46.6683 88.9349 45.9334 88.249 45.3389C87.866 45.0069 87.4311 44.7425 87.0295 44.4333C86.5205 44.0414 85.9406 43.915 85.3294 43.8644C85.2091 43.8544 85.0971 43.7333 84.9814 43.6634C85.0947 43.5873 85.2117 43.4399 85.3206 43.4463C86.2777 43.5025 87.2307 43.6025 88.1274 44.0027C89.1021 44.4377 89.6103 45.3125 90.018 46.2709C90.5005 47.4052 90.3646 48.517 89.9211 49.6364C89.3674 51.0339 88.7687 52.4042 87.9522 53.6541C87.71 54.0249 87.3931 54.3404 87.1311 54.6982C87.0219 54.8473 86.9669 55.0407 86.8872 55.214C87.0668 55.2945 87.2414 55.4274 87.4269 55.4471C88.5993 55.5721 89.7836 55.6315 90.9133 56.0153C91.9476 56.3668 92.9971 56.6743 93.9456 57.279C94.7491 57.7913 95.6566 58.1364 96.4159 58.7071C97.1951 59.2928 97.8693 60.0423 98.5523 60.7594C98.9554 61.1826 99.2611 61.7083 99.6574 62.1401C100.029 62.5452 100.284 62.9991 100.512 63.5064C100.75 64.0398 101.147 64.4918 101.419 65.012C101.695 65.5412 101.912 66.1059 102.138 66.6628C102.317 67.1048 102.508 67.5477 102.627 68.0093C102.816 68.7441 102.941 69.4969 103.11 70.2379C103.231 70.7692 103.411 71.2874 103.509 71.8228C103.662 72.6671 103.793 73.518 103.89 74.3716C104.001 75.3501 104.089 76.3334 104.14 77.3172C104.174 77.9632 104.124 78.6139 104.112 79.2625C104.091 80.353 104.12 81.4478 104.034 82.5325C103.969 83.3621 103.773 84.1823 103.608 85.0007C103.392 86.0749 103.153 87.144 102.916 88.2135C102.871 88.4166 102.818 88.6261 102.724 88.8069C102.456 89.3235 102.497 89.4965 102.995 89.7728C103.161 89.865 103.32 89.9707 103.484 90.067C104.504 90.6664 104.136 91.6896 103.49 92.2622C103.317 92.4159 103.106 92.5215 102.915 92.6532C102.6 92.8694 102.563 93.1693 102.803 93.4785C102.922 93.6318 103.061 93.7772 103.142 93.9515C103.512 94.7462 103.194 95.5993 102.306 95.95C101.73 96.1773 101.62 96.6068 101.523 97.1368C101.315 98.2699 101.067 99.3947 100.853 100.527C100.677 101.456 100.527 102.391 100.368 103.31C100.741 103.516 100.96 103.419 101.19 103.144C101.397 102.897 101.656 102.664 101.936 102.524C102.714 102.133 103.51 101.779 104.309 101.437C105.352 100.99 106.457 101.003 107.555 101.028C108.323 101.046 108.99 101.754 109.075 102.565C109.173 103.494 109.034 104.37 108.541 105.156C107.846 106.261 107.195 107.406 106.41 108.437C105.767 109.283 105.025 110.083 104.204 110.73C103.021 111.66 101.827 112.6 100.442 113.21C99.2893 113.719 98.1609 114.287 97.0146 114.811C96.4527 115.068 95.8883 115.34 95.3 115.507C94.6223 115.699 93.9193 115.798 93.2228 115.905C92.9106 115.954 92.5878 115.922 92.2698 115.933C91.2744 115.964 90.6762 115.323 90.5841 114.267C90.518 113.509 90.6916 112.813 90.8819 112.115C91.2131 110.898 91.5721 109.69 91.934 108.484C92.0212 108.193 92.1791 107.927 92.2805 107.64C92.5603 106.849 92.8324 106.053 93.0934 105.254C93.1272 105.151 93.1179 104.976 93.0559 104.908C92.9971 104.845 92.8219 104.833 92.7336 104.877C91.6717 105.411 90.6068 105.939 89.5619 106.508C88.4411 107.119 87.362 107.818 86.2245 108.39C85.3359 108.836 84.3863 109.147 83.4633 109.517C82.8048 109.781 82.1333 110.015 81.4945 110.325C81.3264 110.406 81.1611 110.716 81.1602 110.922C81.1564 111.813 81.2998 112.713 81.2266 113.594C81.143 114.6 81.244 115.639 80.8697 116.611C80.5491 117.444 80.283 118.303 79.9234 119.116C79.4982 120.078 78.9428 120.948 78.1687 121.665C76.9635 122.782 75.5759 123.246 73.9941 123.161C73.4177 123.13 72.8345 123.181 72.2633 123.111C70.5908 122.909 68.8932 123.099 67.2326 122.737C67.1668 122.723 67.0997 122.712 67.0327 122.708C66.1518 122.654 66.2041 122.667 66.0058 123.591C65.8203 124.455 65.5119 125.289 65.2489 126.134C65.1195 126.549 64.9954 126.97 64.8252 127.367C64.399 128.362 63.906 129.32 63.0939 130.031C62.9436 130.163 62.6937 130.176 62.4857 130.225C61.7942 130.388 61.0815 130.594 60.3987 130.305C59.7896 130.048 59.1347 129.821 58.7418 129.178C58.4314 128.671 58.046 128.207 57.786 127.674C57.2222 126.517 57.0166 125.28 57.1859 123.975C57.2597 123.406 57.2096 122.816 57.3051 122.253C57.4527 121.382 57.6686 120.523 57.8713 119.664C58.0605 118.861 58.1765 118.02 58.4928 117.275C58.986 116.113 59.1529 114.781 60.0853 113.835C60.6742 113.237 61.3236 112.768 62.0675 112.412C63.1176 111.911 64.2156 111.645 65.3485 111.803C65.9837 111.891 66.5883 112.224 67.2069 112.446C67.6595 112.609 67.9312 112.959 68.1063 113.41C68.3428 114.019 68.8003 114.291 69.3896 114.214C70.0355 114.129 70.7004 114.038 71.3036 113.799C72.1884 113.449 72.5298 112.752 72.4729 111.762C72.4217 110.872 72.4236 110.861 71.5928 110.701C70.6771 110.525 69.7552 110.384 68.8405 110.203C68.5142 110.138 68.1931 110.022 67.8831 109.893C66.7772 109.434 65.6427 109.031 64.5839 108.471C63.386 107.836 62.2292 107.146 61.22 106.138C60.2868 105.206 59.5889 104.126 58.8677 103.048C58.429 102.392 58.0957 101.658 57.7094 100.963C57.555 100.685 57.2023 100.619 56.9573 100.777C56.0432 101.365 55.131 101.957 54.199 102.512C53.9061 102.686 53.7714 102.87 53.8398 103.219C53.9567 103.814 54.1117 104.407 54.1625 105.009C54.2043 105.505 54.1553 106.02 54.0786 106.514C54.0016 107.011 53.6226 107.279 53.1978 107.4C52.677 107.548 52.1937 107.451 51.808 106.989C51.3198 106.404 50.9662 105.748 50.7206 105.012C50.5268 104.431 50.4929 104.433 49.9309 104.638C49.2608 104.883 48.6009 105.159 47.9275 105.393C47.0832 105.686 46.2523 105.626 45.4722 105.161C45.0108 104.886 44.842 104.064 45.102 103.448C45.2003 103.215 45.343 103.003 45.4437 102.771C45.5606 102.502 45.5254 102.293 45.2234 102.162C45.017 102.073 44.7987 101.947 44.6589 101.773C44.5184 101.597 44.3783 101.332 44.3967 101.121C44.4459 100.558 44.3568 99.9558 44.7623 99.4615C44.9731 99.2045 44.7473 98.9806 44.5808 98.7995C43.9314 98.0937 43.9763 97.0423 44.702 96.4359C45.2331 95.9922 45.766 95.5488 46.3218 95.141C46.5091 95.0035 46.7679 94.972 46.9959 94.8991C48.0813 94.5528 49.1659 94.2032 50.2536 93.8654C51.9345 93.3434 53.617 92.8271 55.3008 92.3152C55.6209 92.2179 55.7495 92.0405 55.717 91.67C55.6419 90.8162 55.5721 89.9588 55.5641 89.1023C55.5534 87.9485 55.5101 86.7957 55.7448 85.6452C55.9275 84.7494 55.9422 83.817 56.0836 82.91C56.2959 81.5473 56.3786 80.1472 57.0438 78.9004C57.16 78.6826 57.2011 78.4181 57.2657 78.172C57.4359 77.5237 57.5533 76.8552 57.7771 76.2287C58.1202 75.2687 58.4958 74.3165 58.9295 73.3989C59.4172 72.3671 59.9358 71.3437 60.5318 70.3793C61.0858 69.4827 61.7239 68.6362 62.3885 67.8255C63.4042 66.5864 64.4604 65.3831 65.5291 64.1941C65.9141 63.7657 66.3899 63.4293 66.8136 63.038C67.0541 62.8158 67.291 62.5833 67.4967 62.3263C67.7404 62.0219 67.4981 61.8524 67.2758 61.7456C66.9352 61.5817 66.5684 61.4791 66.2262 61.3183C64.995 60.7397 63.7536 60.1811 62.5464 59.5502C61.5423 59.0254 60.5844 58.4031 59.5999 57.8358C58.0668 56.9524 56.5618 56.022 55.1807 54.8873C54.6943 54.4876 54.2149 54.0735 53.7689 53.6254C53.0251 52.8779 52.3466 52.0545 51.575 51.3422C50.5855 50.4286 49.8933 49.2664 49.0666 48.2174C48.6505 47.6894 48.2306 47.1609 47.8612 46.597C47.5645 46.1441 47.3412 45.6377 47.0855 45.155C47.1144 45.1266 47.1434 45.0981 47.1724 45.0697C47.3575 45.2502 47.5523 45.4212 47.7264 45.6128C48.6142 46.5896 49.4676 47.6034 50.3888 48.5434C51.4002 49.5755 52.4535 50.5648 53.525 51.5275C54.2052 52.1385 54.9557 52.6618 55.6669 53.2352C55.9107 53.4318 56.1208 53.6746 56.3634 53.8731C57.1764 54.5382 57.9608 55.2528 58.8257 55.833C59.5496 56.3186 60.2424 56.8544 61.0649 57.2062C62.1009 57.6492 63.0364 58.3471 64.0436 58.8746C64.8647 59.3045 65.7273 59.6463 66.5723 60.0252C66.6455 60.058 66.7395 60.0556 66.799 60.1038C67.3919 60.5847 68.0902 60.6281 68.789 60.6094C69.0465 60.6026 69.3276 60.5078 69.5508 60.3686C70.0423 60.0621 70.5037 59.7017 70.9774 59.3634C71.4535 59.0232 71.9175 58.6617 72.4096 58.3496C72.8315 58.0819 73.2694 57.8253 73.7287 57.644C74.6118 57.2955 75.5181 57.0127 76.4071 56.6799C76.5611 56.6221 76.7869 56.4493 76.7843 56.3348C76.7808 56.1835 76.6134 55.9749 76.4664 55.8987C75.3916 55.3417 74.3028 54.8147 73.2212 54.2721C72.3515 53.8359 71.4879 53.3863 70.6179 52.9511C69.5212 52.4025 68.4079 51.8889 67.3248 51.3119C66.1447 50.6831 64.9913 49.9984 63.8248 49.3408C63.7426 49.2944 63.6469 49.2756 63.5609 49.2356C62.8382 48.8988 62.122 48.545 61.3921 48.2265C60.8374 47.9844 60.2633 47.7924 59.7017 47.5676C58.1403 46.9426 56.5828 46.3069 55.0198 45.6862C54.2855 45.3945 53.5416 45.1297 52.8038 44.8477C52.6908 44.8045 52.5659 44.7564 52.4854 44.6702C52.4156 44.5954 52.4008 44.4633 52.3617 44.3565C52.4518 44.3266 52.5537 44.2516 52.6301 44.2738C53.7963 44.6135 54.9571 44.9736 56.1235 45.3125C56.7628 45.4982 57.4314 45.5927 58.0499 45.8337C59.6098 46.4417 61.1502 47.1056 62.6956 47.7546C63.441 48.0676 64.1871 48.3803 64.9202 48.7235C66.1729 49.3099 67.4206 49.909 68.6608 50.5245C69.4781 50.9301 70.2742 51.3833 71.0881 51.7971C71.823 52.1708 72.5742 52.5087 73.3082 52.8844C73.6568 53.0629 73.9781 53.2995 74.3187 53.4966C74.6295 53.6764 74.9518 53.834 75.2651 54.0091C75.675 54.2381 76.086 54.4657 76.4878 54.7099C77.2688 55.1845 78.0066 55.8213 78.911 55.9326C79.4773 56.0022 80.0823 55.7444 80.6633 55.6031C80.6997 55.5942 80.7318 55.2918 80.6753 55.1746C80.3089 54.4138 79.7957 53.7735 79.2022 53.1918C78.2982 52.3058 77.2063 51.7287 76.1669 51.064C75.1277 50.3993 74.0795 49.75 73.0482 49.072C72.4599 48.6853 71.9198 48.213 71.3184 47.8531C70.3155 47.253 69.514 46.3356 68.3625 45.9539C67.263 45.5893 66.2164 45.0456 65.1487 44.5753C64.8285 44.4342 64.5263 44.2375 64.1969 44.132C63.4292 43.8864 62.6487 43.6857 61.8761 43.4568C61.4928 43.3432 61.1204 43.1856 60.7343 43.0865C60.0232 42.904 59.3118 42.703 58.5891 42.5962C57.7325 42.4696 56.8623 42.4489 56.0006 42.3556C55.0237 42.2498 54.0513 42.0959 53.0738 41.9985C52.4244 41.9338 51.7636 41.8587 51.1184 41.9168C49.9095 42.0257 48.7431 41.8043 47.573 41.5665C47.4038 41.5322 47.2327 41.46 47.0862 41.3648C46.9755 41.2928 46.8078 41.1078 46.8308 41.0575C46.8977 40.9115 47.0347 40.7267 47.1677 40.703C47.5753 40.6301 47.9944 40.5933 48.408 40.6005C49.4912 40.6196 50.5741 40.6638 51.6568 40.7086C52.7891 40.7555 53.9227 40.7893 55.0524 40.8772C55.8172 40.9367 56.5758 41.0833 57.3379 41.1843C58.1908 41.2975 59.0453 41.3969 59.8975 41.5151C60.2422 41.5629 60.5828 41.644 60.9252 41.7105C62.3842 41.9939 63.8247 42.3401 65.1773 43.0157C65.5611 43.2074 65.9667 43.3518 66.367 43.5042C66.661 43.6162 66.7609 43.4497 66.6756 43.183C66.5691 42.8498 66.4172 42.5323 66.2776 42.2115C65.9148 41.3779 65.5403 40.5499 65.1854 39.7126C64.9247 39.0977 64.6096 38.4923 64.4571 37.8462C64.1995 36.7545 64.0514 35.6339 63.8571 34.5256C63.7409 33.8631 63.603 33.2039 63.5141 32.5374C63.4293 31.9014 63.3884 31.2582 63.3421 30.6171C63.3149 30.2403 63.3166 29.8611 63.301 29.4832C63.2975 29.3984 63.2492 29.3069 63.268 29.2315C63.3352 28.9626 63.2521 28.5824 63.6164 28.5022C63.9758 28.4231 64.0394 28.8061 64.0929 29.0183C64.2468 29.6288 64.3358 30.2586 64.4303 30.8842C64.5118 31.4231 64.5485 31.9698 64.6363 32.5074C64.7665 33.3047 64.9087 34.1007 65.0771 34.8897C65.1643 35.2988 65.315 35.6931 65.4436 36.0918C65.7662 37.0917 66.1066 38.0855 66.4134 39.0907C66.7426 40.1693 67.1177 41.2182 67.7132 42.1749C68.035 42.6919 68.2813 43.2613 68.5586 43.8089C68.5895 43.8699 68.6315 43.9533 68.6148 44.0084C68.4076 44.6971 68.9635 44.7778 69.325 45.0093C69.6313 45.2054 69.9363 45.4062 70.2549 45.5782C70.5116 45.7167 70.8105 45.7771 71.0517 45.9375C72.5906 46.9614 74.1129 48.0132 75.653 49.035C76.3435 49.4931 77.0697 49.8905 77.7652 50.3405C78.0575 50.5296 78.3067 50.7916 78.5868 51.0038C78.6802 51.0747 78.8086 51.0942 78.9999 51.1674ZM83.4835 90.501C83.4787 90.543 83.4738 90.585 83.469 90.6269C82.5818 90.4961 81.69 90.3921 80.8089 90.2252C80.2217 90.1139 79.6442 89.9323 79.0724 89.7477C78.3602 89.5178 77.6522 89.2699 76.9538 88.9972C76.3094 88.7457 75.6444 88.5165 75.0541 88.1573C74.4613 87.7966 73.9335 87.307 73.4135 86.8297C73.2821 86.7091 73.2892 86.4203 73.2327 86.2087C73.4237 86.2249 73.642 86.1833 73.801 86.2672C74.489 86.6302 75.1375 87.0843 75.8419 87.4034C76.8849 87.8759 77.9571 88.2795 79.0286 88.677C79.5022 88.8527 80.0005 88.966 80.4954 89.0623C80.8832 89.1377 81.285 89.1293 81.6774 89.1835C82.1792 89.2528 82.6782 89.4193 83.1778 89.4164C84.2585 89.4101 85.3399 89.3379 86.4191 89.2623C87.022 89.22 87.6274 89.1518 88.2205 89.033C89.2191 88.8328 90.2089 88.5837 91.202 88.3537C91.4911 88.2867 91.9036 88.3111 92.036 88.1205C92.1972 87.8885 92.1325 87.4744 92.1476 87.1381C92.1942 86.1028 92.4653 85.1479 92.9629 84.2477C93.4761 83.3193 94.9828 83.2426 95.4521 84.2009C95.599 84.501 95.7843 84.7852 95.895 85.0989C96.1114 85.7121 96.4427 86.3019 96.2777 87.01C96.2212 87.2524 96.3403 87.4263 96.6072 87.4193C96.7661 87.4152 96.9291 87.4239 97.0828 87.3897C97.9288 87.2012 98.7719 86.9975 99.6174 86.8067C100.194 86.6766 100.771 86.5396 101.353 86.4426C101.801 86.3678 101.975 86.1679 102.023 85.6733C102.077 85.1111 102.163 84.5506 102.266 83.9957C102.431 83.1111 102.722 82.2387 102.777 81.3485C102.879 79.7212 102.88 78.0841 102.86 76.4519C102.85 75.5821 102.734 74.7104 102.618 73.8466C102.558 73.4035 102.375 72.9803 102.282 72.5402C102.168 72.0003 102.158 71.426 101.983 70.9123C101.544 69.6233 101.263 68.279 100.632 67.0532C99.9883 65.8014 99.3838 64.5306 98.5094 63.4363C97.9929 62.7899 97.4905 62.1127 96.8866 61.5665C95.8745 60.6511 94.8188 59.7825 93.5761 59.2108C92.97 58.932 92.3909 58.5883 91.7939 58.2867C91.4812 58.1287 91.1678 57.9358 90.8346 57.8664C89.4784 57.5841 88.1227 57.2502 86.751 57.1141C85.4301 56.983 84.0878 57.1168 82.7583 57.0534C81.1767 56.978 79.6629 57.3455 78.1549 57.7377C77.4362 57.9246 76.7734 58.3539 76.054 58.5334C74.794 58.8478 73.7864 59.6542 72.6877 60.2853C72.394 60.454 72.1035 60.6344 71.832 60.8396C71.2537 61.2768 70.7272 61.8078 70.1091 62.1644C69.2692 62.649 68.4748 63.1803 67.7987 63.8915C66.8961 64.8408 65.993 65.7912 65.127 66.7771C64.4999 67.4909 63.9111 68.2455 63.346 69.0154C62.9461 69.56 62.617 70.1623 62.2515 70.7354C62.0266 71.088 61.7753 71.423 61.5666 71.7856C61.304 72.2421 61.066 72.7147 60.8296 73.1872C60.2889 74.2681 59.7406 75.3455 59.2281 76.4414C59.0649 76.7904 59.0141 77.1965 58.8932 77.5697C58.8173 77.8043 58.6742 78.0176 58.6178 78.2554C58.4336 79.032 58.2719 79.8147 58.1082 80.5966C57.9365 81.4161 57.4789 82.1455 57.5038 83.0351C57.5205 83.6359 57.3857 84.2404 57.3348 84.8448C57.2863 85.4205 57.2604 85.9983 57.2215 86.575C57.1478 87.6651 57.0064 88.7555 57.0137 89.845C57.0224 91.1262 57.1345 92.4088 57.2505 93.686C57.3102 94.3422 57.4667 94.9896 57.5972 95.6371C57.6858 96.0766 57.7894 96.5146 57.914 96.9442C58.2669 98.1604 58.5649 99.402 59.0202 100.575C59.3231 101.355 59.8623 102.033 60.2893 102.761C60.8794 103.767 61.6082 104.646 62.4861 105.379C62.9248 105.745 63.407 106.052 63.855 106.407C64.9396 107.264 66.1735 107.807 67.4391 108.261C68.3296 108.581 69.2432 108.845 70.1627 109.056C70.8946 109.223 71.6486 109.307 72.3971 109.362C73.267 109.427 74.1429 109.396 75.0138 109.45C76.3957 109.537 77.7783 109.803 79.1483 109.349C79.2882 109.303 79.4371 109.284 79.5831 109.261C80.3828 109.135 81.1986 109.078 81.9777 108.868C82.5894 108.702 83.1686 108.377 83.7393 108.074C84.6805 107.575 85.5932 107.016 86.5366 106.523C87.2887 106.129 88.0789 105.817 88.8323 105.425C89.2058 105.232 89.5096 104.883 89.8879 104.706C90.8718 104.246 91.8076 103.726 92.5981 102.936C92.9161 102.619 93.7683 102.55 94.0791 102.785C94.6596 103.223 94.913 103.356 94.6791 104.287C94.5434 104.828 94.3545 105.355 94.1748 105.882C93.9125 106.652 93.6603 107.427 93.359 108.18C93.1571 108.685 92.833 109.136 92.6446 109.645C92.437 110.205 92.3299 110.806 92.1651 111.385C91.939 112.179 91.7338 112.975 91.7462 113.816C91.7532 114.285 92.0315 114.668 92.4789 114.639C93.208 114.591 93.936 114.478 94.6567 114.346C95.1821 114.25 95.7102 114.121 96.209 113.926C96.6922 113.738 97.1329 113.432 97.6039 113.204C98.1332 112.947 98.7006 112.769 99.2067 112.472C100.241 111.864 101.266 111.233 102.255 110.547C102.927 110.08 103.533 109.506 104.161 108.97C104.261 108.885 104.298 108.698 104.403 108.641C105.265 108.183 105.774 107.309 106.309 106.567C106.928 105.708 107.551 104.763 107.785 103.634C107.934 102.915 107.579 102.413 106.883 102.47C106.668 102.488 106.452 102.519 106.239 102.509C105.425 102.471 104.63 102.521 103.909 102.985C103.629 103.165 103.338 103.329 103.065 103.521C102.479 103.934 101.849 104.298 101.332 104.793C100.511 105.58 99.7773 106.467 98.988 107.291C98.6957 107.597 98.3837 107.928 98.0182 108.092C97.7943 108.192 97.3767 108.083 97.1891 107.902C97.0689 107.787 97.142 107.336 97.2499 107.096C97.3775 106.813 97.6421 106.6 97.8362 106.346C98.1274 105.967 98.5459 105.621 98.6679 105.186C98.9775 104.08 99.1311 102.927 99.387 101.802C99.7017 100.42 100.155 99.0767 100.273 97.6412C100.338 96.8539 100.219 96.6473 99.4862 96.7751C99.4597 96.7797 99.4336 96.7875 99.4071 96.7928C98.4664 96.9811 97.5225 97.0133 96.5778 96.8378C96.4711 96.818 96.3786 96.7122 96.2795 96.6462C96.377 96.5488 96.4612 96.3924 96.5741 96.3643C97.0143 96.255 97.4641 96.1897 97.9091 96.101C98.1168 96.0596 98.3199 95.9698 98.528 95.9575C99.7662 95.8848 100.938 95.5263 102.074 95.0336C102.544 94.8297 102.674 94.3852 102.378 94.0043C102.233 93.8171 101.961 93.6569 101.734 93.6376C100.674 93.5473 99.6396 93.7441 98.6121 94.013C98.2671 94.1033 97.8976 94.1246 97.5413 94.1118C97.4165 94.1074 97.2552 93.9269 97.1942 93.7863C97.162 93.7125 97.2876 93.4713 97.3804 93.4422C98.0713 93.2259 98.7632 92.9887 99.4715 92.8636C100.587 92.6666 101.668 92.4138 102.638 91.7536C103.288 91.3112 103.306 91.0133 102.626 90.618C101.455 89.9378 100.29 90.2154 99.1577 90.7176C98.5968 90.9662 98.0433 91.114 97.4425 91.0319C97.1909 90.9975 96.8631 90.9639 96.9047 90.6106C96.9234 90.4522 97.1872 90.2509 97.3712 90.2025C98.0429 90.026 98.7264 89.8968 99.4085 89.7675C99.792 89.6947 100.111 89.5545 100.378 89.223C100.518 89.049 100.782 88.9485 101.007 88.8969C101.376 88.8123 101.593 88.5552 101.762 88.2516C101.925 87.9569 101.747 87.6393 101.41 87.6456C100.949 87.6544 100.478 87.6758 100.03 87.7831C99.0268 88.0237 98.0379 88.3314 97.0381 88.5898C96.6133 88.6996 96.1767 88.7994 95.7435 88.8096C95.5977 88.813 95.3505 88.5462 95.3154 88.3668C95.2296 87.9281 95.2492 87.4676 95.2105 87.0174C95.1505 86.319 95.1666 85.6002 94.7051 85.009C94.4342 84.662 93.9747 84.6769 93.7725 85.0682C93.6961 85.2161 93.6164 85.3796 93.6014 85.5423C93.5117 86.5195 93.4227 87.4976 93.3703 88.4776C93.3455 88.9419 93.191 89.3431 92.8272 89.4874C92.567 89.5906 92.2836 89.6931 92.0122 89.6886C90.8085 89.6685 89.6386 89.8297 88.5046 90.2682C87.5152 90.6508 86.485 90.6954 85.4475 90.6407C84.7923 90.6062 84.1381 90.5484 83.4835 90.501ZM64.4525 113.201C64.4518 113.212 64.451 113.222 64.4503 113.233C64.3701 113.225 64.2873 113.2 64.2103 113.213C63.6457 113.309 63.002 113.263 62.5347 113.543C61.513 114.156 60.7527 115.08 60.2125 116.216C59.6881 117.32 59.2497 118.45 58.969 119.643C58.8579 120.116 58.8859 120.622 58.8161 121.108C58.6139 122.516 58.4672 123.919 58.5615 125.355C58.6234 126.299 58.7941 127.148 59.3075 127.94C59.6524 128.472 60.1196 128.799 60.641 129.043C60.9041 129.166 61.2527 129.216 61.5295 129.148C62.1014 129.008 62.5533 128.634 62.8549 128.085C62.9696 127.876 63.0669 127.654 63.2006 127.461C63.7578 126.652 64.1607 125.748 64.4305 124.811C64.6637 124.001 64.7075 123.127 64.8038 122.277C64.8574 121.804 64.8695 121.323 64.861 120.846C64.8458 119.997 64.7896 119.149 64.7729 118.299C64.7643 117.866 65.1137 117.643 65.415 117.885C65.5407 117.986 65.6144 118.177 65.6796 118.341C65.9786 119.095 66.1281 119.876 66.0726 120.7C66.0545 120.968 66.1847 121.14 66.4763 121.174C67.2321 121.26 67.985 121.374 68.7398 121.471C69.8087 121.608 70.8777 121.838 71.9478 121.845C72.8951 121.852 73.861 121.983 74.809 121.658C75.4634 121.434 76.177 121.422 76.8086 121.078C77.1846 120.873 77.512 120.641 77.7325 120.237C78.0776 119.603 78.469 118.998 78.8259 118.371C78.9981 118.069 79.1888 117.761 79.28 117.428C79.5578 116.414 79.8866 115.399 80.0152 114.36C80.1438 113.321 80.0815 112.252 80.0495 111.197C80.035 110.718 79.7021 110.55 79.3033 110.623C78.3471 110.799 77.3879 110.98 76.4224 111.071C75.6802 111.14 74.9268 111.074 74.1783 111.067C73.8653 111.064 73.6061 111.105 73.6517 111.552C73.7319 112.34 73.6377 113.048 73.1905 113.763C72.5442 114.796 71.7427 115.436 70.5708 115.53C70.1596 115.564 69.7467 115.604 69.3352 115.598C68.4578 115.585 67.6335 115.396 67.1752 114.494C66.8143 113.784 66.2604 113.408 65.5343 113.29C65.1779 113.232 64.8134 113.229 64.4525 113.201ZM55.9946 94.5341C56.0117 94.5313 56.0289 94.5284 56.046 94.5256C56.046 94.4426 56.0584 94.3567 56.0428 94.2771C56.0239 94.181 55.9771 94.0915 55.9496 93.9967C55.7245 93.2209 55.7275 93.2285 55.052 93.4792C54.2565 93.7745 53.4526 94.0123 52.6197 94.1965C51.268 94.4954 49.9461 94.9604 48.6289 95.4114C47.935 95.6489 47.2573 95.9639 46.6098 96.32C46.0769 96.6132 45.6067 97.0291 45.3471 97.6365C45.2551 97.8518 45.1717 98.0835 45.5364 98.1214C45.7052 98.139 45.8743 98.2364 46.0371 98.2217C46.9298 98.1414 47.7929 97.9275 48.6134 97.5347C48.9293 97.3834 49.2494 97.2339 49.5808 97.1307C49.7111 97.0901 49.8774 97.1782 50.0273 97.2076C49.9536 97.3643 49.8882 97.5264 49.8016 97.6747C49.7711 97.727 49.6894 97.747 49.6295 97.7787C49.1807 98.0165 48.6842 98.1892 48.2942 98.5073C47.796 98.9137 47.2358 99.09 46.6553 99.1531C45.9145 99.2335 45.5226 99.6412 45.3214 100.351C45.1832 100.838 45.4027 101.249 45.8791 101.314C46.9733 101.465 47.8994 100.976 48.8216 100.454C49.2307 100.223 49.6559 100.013 50.0939 99.8552C50.2286 99.8067 50.4296 99.9635 50.6003 100.026C50.5211 100.171 50.4757 100.382 50.357 100.45C49.9007 100.711 49.4168 100.918 48.9507 101.162C48.4382 101.429 47.927 101.701 47.4291 101.997C47.1454 102.166 46.8429 102.343 46.6333 102.595C46.3915 102.886 46.2106 103.248 46.0664 103.608C45.9873 103.805 45.9502 104.136 46.0536 104.27C46.1783 104.431 46.4826 104.534 46.6901 104.506C47.1124 104.449 47.5257 104.3 47.936 104.165C48.7943 103.884 49.6452 103.576 50.5054 103.301C50.9423 103.162 51.2092 103.317 51.4003 103.776C51.6944 104.482 51.9838 105.19 52.2677 105.901C52.4453 106.345 52.7421 106.53 53.098 106.397C53.4389 106.269 53.5887 105.925 53.4601 105.488C53.2262 104.695 52.9706 103.909 52.7327 103.117C52.5972 102.665 52.6949 102.43 53.0556 102.236C54.3732 101.529 55.5297 100.566 56.7155 99.6514C56.9065 99.504 57.0087 99.3208 56.93 99.0263C56.7528 98.3624 56.6184 97.6857 56.4709 97.0132C56.4225 96.7924 56.3886 96.5682 56.3458 96.346C56.2294 95.7419 56.1118 95.1381 55.9946 94.5341ZM88.1201 50.5955C87.9349 50.4885 87.7654 50.3581 87.5758 50.2882C87.2165 50.1559 86.8442 50.0635 86.4801 49.9449C85.9731 49.7797 85.6487 49.3598 85.2853 48.9901C85.1915 48.8946 84.9904 48.7836 84.9192 48.827C84.8083 48.8946 84.7035 49.0891 84.7049 49.2284C84.7182 50.4679 84.4788 51.6676 84.2259 52.8659C84.1856 53.0567 84.1225 53.2432 84.0594 53.4275C83.8766 53.9609 83.6867 54.4915 83.5031 55.0245C83.4081 55.3 83.5301 55.4471 83.7684 55.3343C84.2671 55.0981 84.813 54.8918 85.2134 54.5214C86.1582 53.6473 87.0047 52.6612 87.6679 51.5212C87.8209 51.2582 87.9378 50.9719 88.1201 50.5955Z" fill="black"/>
<path d="M46.2027 43.7204C45.9126 43.2775 45.6159 42.8392 45.3353 42.3897C45.1902 42.1572 45.0479 41.9148 44.9577 41.6562C44.9213 41.5519 45.0275 41.3922 45.0687 41.2578C45.1774 41.3068 45.3397 41.3239 45.3857 41.4102C45.6258 41.8594 45.8385 42.3251 46.0563 42.7873C46.1389 42.9624 46.2209 43.1396 46.2827 43.3234C46.3189 43.4311 46.3147 43.5539 46.3287 43.6699C46.2867 43.6868 46.2447 43.7035 46.2027 43.7204Z" fill="black"/>
<path d="M91.9748 96.6629C91.3937 96.7307 90.8139 96.8178 90.2313 96.8621C89.2218 96.9388 88.2106 96.9909 87.1999 97.0498C86.358 97.0989 85.5138 97.2034 84.6741 97.1736C83.6184 97.1363 82.5548 97.0578 81.5159 96.867C80.4155 96.665 79.3273 96.3546 78.2579 96.0088C77.3409 95.7123 76.4451 95.3295 75.5645 94.9251C75.067 94.6967 74.605 94.3694 74.1572 94.0407C74.0168 93.9376 73.975 93.6849 73.888 93.5005C74.0817 93.469 74.2913 93.3737 74.4649 93.4222C74.6751 93.481 74.846 93.6806 75.0496 93.785C75.4753 94.0031 75.9076 94.2081 76.3441 94.4009C76.7618 94.5855 77.1828 94.7656 77.6121 94.9167C78.7547 95.3188 79.9047 95.6244 81.1325 95.6472C83.0003 95.6818 84.8657 95.8417 86.733 95.9279C87.1583 95.9476 87.5872 95.8863 88.0142 95.8571C88.2921 95.8381 88.5701 95.8151 88.8472 95.7847C89.6298 95.6987 90.4106 95.591 91.1948 95.5273C91.4961 95.5029 91.8174 95.5256 92.1068 95.6117C92.7075 95.7902 93.3122 95.7506 93.9194 95.7445C94.2092 95.7416 94.5057 95.7828 94.7871 95.7309C95.1652 95.6612 95.3082 95.9056 95.4061 96.1856C95.4818 96.4019 95.1766 96.7702 94.913 96.7315C94.2328 96.6316 93.7623 97.0744 93.2683 97.407C92.1239 98.1772 91.0135 99.0032 89.8854 99.8007C89.4466 100.111 89.0075 100.424 88.5463 100.694C88.4208 100.768 88.2146 100.687 88.0453 100.678C88.1014 100.542 88.1285 100.378 88.2183 100.274C88.7795 99.6266 89.379 99.0307 90.1286 98.6146C90.3665 98.4825 90.5265 98.2027 90.746 98.0231C91.0921 97.7399 91.4671 97.4959 91.8112 97.2102C91.9294 97.1122 91.9916 96.9389 92.0794 96.8C92.0446 96.7543 92.0096 96.7086 91.9748 96.6629Z" fill="black"/>
<path d="M94.2705 72.8751C95.0033 71.9324 95.6592 70.9847 96.4213 70.1444C96.932 69.5812 97.3093 68.9592 97.6754 68.2999C97.8268 68.0273 98.1415 67.8348 98.416 67.669C98.5323 67.5988 98.8323 67.6328 98.8811 67.7218C98.9827 67.9073 99.0566 68.1932 98.9921 68.3805C98.8249 68.8662 98.589 69.3277 98.3578 69.7862C98.0626 70.3716 97.776 70.9663 97.4278 71.5163C97.1248 71.995 96.6787 72.3788 96.4078 72.8729C95.9782 73.6569 95.3632 74.2527 94.7956 74.9026C94.409 75.3452 93.9047 75.3887 93.398 75.3917C93.0511 75.3937 92.7427 74.9017 92.7569 74.4401C92.7848 73.5324 92.8304 72.6309 92.6749 71.7217C92.5599 71.049 92.6686 70.3628 93.1096 69.8177C93.2431 69.6527 93.5148 69.5048 93.707 69.5245C94.0402 69.5586 94.2573 69.8393 94.2368 70.2137C94.202 70.849 94.1238 71.4814 94.0784 72.1162C94.0595 72.3807 93.9865 72.6759 94.2705 72.8751Z" fill="black"/>
<path d="M78.2816 71.5874C78.4029 71.3446 78.5121 71.1259 78.6213 70.9072C78.7709 71.1136 78.9691 71.2984 79.0617 71.5301C79.4483 72.4975 79.7736 73.4929 80.1794 74.4507C80.4724 75.1423 80.7966 75.8368 81.2158 76.4465C81.7259 77.1883 82.343 77.8493 82.9273 78.5325C83.4731 79.1708 83.9986 79.8374 84.6045 80.4067C85.0655 80.84 85.6244 81.1665 86.1657 81.4926C86.6633 81.7925 87.1747 82.1074 87.7192 82.266C88.1146 82.3812 88.4832 82.459 88.8017 82.7584C89.0371 82.9796 89.0883 83.2471 88.9531 83.4773C88.846 83.6597 88.577 83.8754 88.4078 83.8518C87.9125 83.783 87.3998 83.6719 86.9526 83.4471C86.4168 83.1778 85.9436 82.771 85.4397 82.4295C85.0278 82.1501 84.6077 81.8841 84.1966 81.6034C83.3668 81.0368 82.5997 80.3912 81.9122 79.6364C81.2539 78.9137 80.7787 78.0715 80.3591 77.1833C79.9434 76.3033 79.4418 75.4609 79.1036 74.55C78.7547 73.61 78.5573 72.6073 78.2816 71.5874Z" fill="black"/>
<path d="M85.9619 75.1376C85.3657 75.0662 85.128 74.7334 85.1841 74.1525C85.2352 73.6239 85.1594 73.0804 85.2232 72.5549C85.2947 71.9648 85.18 71.3404 85.4904 70.7856C85.5761 70.6324 85.5918 70.437 85.6668 70.275C85.7137 70.1736 85.8114 70.0984 85.8862 70.0115C85.9716 70.1051 86.1192 70.1912 86.1303 70.2937C86.1603 70.5712 86.1128 70.8572 86.1321 71.137C86.1588 71.5247 86.1999 71.9144 86.2801 72.2925C86.2958 72.3662 86.5692 72.4716 86.6372 72.4241C86.9124 72.2319 87.216 72.0302 87.3954 71.7506C87.8209 71.0877 88.161 70.3643 88.5754 69.6927C88.8657 69.2225 89.2021 68.7791 89.5556 68.3589C89.7908 68.0794 90.1113 68.0247 90.4268 68.2557C90.6524 68.4208 90.7479 68.6448 90.6108 68.9177C90.2601 69.616 89.916 70.3189 89.5351 70.9988C89.3883 71.2609 89.1423 71.4593 88.9532 71.6972C88.2706 72.5559 87.5916 73.4178 86.9146 74.2814C86.764 74.4736 86.6499 74.7047 86.4766 74.8675C86.3385 74.9972 86.1359 75.0504 85.9619 75.1376Z" fill="black"/>
<path d="M79.9991 81.2702C79.5888 80.9794 79.161 80.8043 78.9154 80.4769C78.3112 79.6714 77.7731 78.8044 77.5061 77.7943C77.4647 77.6377 77.5055 77.4568 77.5084 77.2871C77.6575 77.3559 77.8499 77.3839 77.9488 77.5003C78.538 78.1936 79.0982 78.9144 79.6861 79.6091C79.8328 79.7825 80.0304 79.9296 80.2318 80.0246C80.5315 80.1662 80.6645 80.4256 80.5703 80.6986C80.4998 80.9027 80.2448 81.0359 79.9991 81.2702Z" fill="black"/>
</svg>
