<svg width="12" height="12" viewBox="0 0 12 12" fill="none" xmlns="http://www.w3.org/2000/svg">
<path d="M9.2131 0.74433C9.4755 0.482 9.6964 0.37154 9.8759 0.41296C10.0554 0.42677 10.2832 0.57174 10.5593 0.84788C10.8354 1.12401 10.9873 1.35873 11.0149 1.55202C11.0425 1.71771 10.9252 1.93171 10.6629 2.19404L7.18353 5.67336L10.87 9.35974C11.1323 9.62214 11.2496 9.84994 11.222 10.0432C11.1944 10.2365 11.0425 10.4712 10.7664 10.7473C10.4765 11.0373 10.2348 11.1961 10.0415 11.2237C9.8482 11.2513 9.6204 11.1339 9.3581 10.8716L5.67168 7.18521L2.21307 10.6438C1.95074 10.9061 1.72983 11.0304 1.55034 11.0166C1.35705 10.989 1.12233 10.8371 0.846201 10.5609C0.570061 10.2848 0.425091 10.057 0.411281 9.87754C0.383671 9.68424 0.501021 9.45644 0.763351 9.19414L4.22197 5.73549L0.742641 2.25617C0.480311 1.99384 0.362961 1.76603 0.390571 1.57274C0.418181 1.37944 0.576961 1.13782 0.866911 0.84788C1.14304 0.57174 1.37776 0.41986 1.57105 0.39225C1.76435 0.36464 1.99216 0.48199 2.25449 0.74432L5.73381 4.22365L9.2131 0.74433Z" fill="white"/>
</svg>
