<svg width="16" height="16" viewBox="0 0 16 16" fill="none" xmlns="http://www.w3.org/2000/svg">
<path d="M13.2292 5.25709C13.1038 4.79147 12.7368 4.42434 12.2711 4.29898C11.4204 4.06616 8.0178 4.06616 8.0178 4.06616C8.0178 4.06616 4.61515 4.06616 3.76449 4.29002C3.30782 4.41539 2.93173 4.79147 2.80638 5.25709C2.58252 6.10775 2.58252 7.87176 2.58252 7.87176C2.58252 7.87176 2.58252 9.64469 2.80638 10.4864C2.93173 10.9521 3.29887 11.3191 3.76449 11.4445C4.62411 11.6774 8.0178 11.6774 8.0178 11.6774C8.0178 11.6774 11.4204 11.6774 12.2711 11.4535C12.7368 11.3282 13.1038 10.961 13.2292 10.4954C13.4531 9.64469 13.4531 7.88071 13.4531 7.88071C13.4531 7.88071 13.462 6.10775 13.2292 5.25709Z" fill="#43423D"/>
<path d="M6.93451 9.50205L9.76404 7.87237L6.93451 6.24268V9.50205Z" fill="white"/>
</svg>
